# xmcd
#
# Track frame offsets: 
#        150
#        16530
#        29627
#        43685
#        60602
#        80110
#        97329
#        110287
#        128620
#        142515
#        159652
#        170237
#        186390
#        198662
#
# Disc length: 2798 seconds
#
# Revision: 4
# Processed by: cddbd v1.5.2PL0 Copyright (c) Steve Scherf et al.
# Submitted via: ExactAudioCopy v0.99pb5
#
DISCID=c20aec0e
DTITLE=Tom Astor - Tom Astor
DYEAR=1996
DGENRE=Deutsch Country
TTITLE0=Irgendwie Wird's Schon Geh'n
TTITLE1=Endlos Weit - Nur Freiheit
TTITLE2=Mir Geht's Gut
TTITLE3=Dieser Tag Kann Dein Tag Sein
TTITLE4=Johnny Cash Hit-Medley  (With Johnny Cash)
TTITLE5=Du Bist Der Schöpfung Heißeste Idee
TTITLE6=Wie Regen, Fluß Und Meer
TTITLE7=Verlorener Sohn
TTITLE8=Du Hast Mich Fest In Der Hand
TTITLE9=Respekt Vor Deiner Schwäche
TTITLE10=I Will Rock'N Roll With You
TTITLE11=Lieder Zum Verlieben
TTITLE12=Fly Little Bird (with John Carter Cash)
TTITLE13=Niemand Schaut Der Zukunft In Die Karten
EXTD=(c)1996 AMC Records and Tapes GmbH Germany/EMI Electrola
EXTT0=
EXTT1=
EXTT2=
EXTT3=
EXTT4=a) Ring of Fire\nb) Walk the Line\nc) Folsom Prison Blues
EXTT5=
EXTT6=
EXTT7=
EXTT8=
EXTT9=
EXTT10=
EXTT11=
EXTT12=
EXTT13=
PLAYORDER=
